# xmcd
# Copyright (C) 1995-1998 Ti Kan
#
# Track frame offsets:
#       150
#       17707
#       34677
#       51586
#       67405
#       90608
#       106036
#       124963
#       144776
#       155077
#       177081
#       198680
#
# Disc length: 2865 seconds
#
# Revision: 0
# Processed by: cddbd v1.5.2PL0 Copyright (c) Steve Scherf et al.
# Submitted via: CD-Import v1.0
#
DISCID=ab0b2f0c
DTITLE=Ben Martin - Worn Legs
DYEAR=1900
DGENRE=
TTITLE0=Take Me Home
TTITLE1=Leave Me Alone
TTITLE2=Face The Day
TTITLE3=Secret
TTITLE4=The Real Deal
TTITLE5=Who Do You Are Talking To
TTITLE6=Sun To Grey
TTITLE7=Too Dark
TTITLE8=Worn Legs
TTITLE9=Sunday Mourning
TTITLE10=When I Walk I See Smiles
TTITLE11=Watch
EXTD=
EXTT0=
EXTT1=
EXTT2=
EXTT3=
EXTT4=
EXTT5=
EXTT6=
EXTT7=
EXTT8=
EXTT9=
EXTT10=
EXTT11=
PLAYORDER=
